<svg width="44" height="44" viewBox="0 0 44 44" fill="none" xmlns="http://www.w3.org/2000/svg">
<path d="M14.8553 4.125L19.6184 1.375L19.9934 2.02452L22 0.866025L24.0066 2.02452L24.3816 1.375L29.1447 4.125L28.7697 4.77452L33.5328 7.52452L33.9078 6.875L38.671 9.625L38.296 10.2745L40.3026 11.433V13.75H41.0526V19.25H40.3026V24.75H41.0526V30.25H40.3026V32.567L38.296 33.7255L38.671 34.375L33.9078 37.125L33.5328 36.4755L28.7697 39.2255L29.1447 39.875L24.3816 42.625L24.0066 41.9755L22 43.134L19.9934 41.9755L19.6184 42.625L14.8553 39.875L15.2303 39.2255L10.4672 36.4755L10.0922 37.125L5.32901 34.375L5.70401 33.7255L3.69744 32.567V30.25H2.94744V24.75H3.69744V19.25H2.94744V13.75H3.69744V11.433L5.70401 10.2745L5.32901 9.625L10.0922 6.875L10.4672 7.52452L15.2303 4.77452L14.8553 4.125Z" fill="white" stroke="#C3C9CA" stroke-width="1.5" stroke-dasharray="5 5"/>
</svg>
