<svg width="302" height="302" viewBox="0 0 302 302" fill="none" xmlns="http://www.w3.org/2000/svg">
<path d="M23.7302 77.5207L151 4.04145L278.27 77.5207V224.479L151 297.959L23.7302 224.479V77.5207Z" fill="#CED3DA" stroke="black" stroke-width="7"/>
<path d="M107.992 106.049L129.323 142.994L171.658 143.189L192.666 106.423L171.336 69.4778L128.991 69.2886L107.992 106.049Z" stroke="black" stroke-width="7"/>
<path d="M66.6682 180.715L87.9985 217.66L130.333 217.855L151.342 181.089L130.012 144.144L87.6667 143.955L66.6682 180.715Z" stroke="black" stroke-width="7"/>
<path d="M151.388 181.454L172.718 218.399L215.053 218.594L236.062 181.828L214.731 144.883L172.386 144.694L151.388 181.454Z" stroke="black" stroke-width="7"/>
<path d="M193 182.5L150 107L110 182.5H193Z" stroke="black" stroke-width="7"/>
</svg>
