<svg width="32" height="32" viewBox="0 0 32 32" fill="none" xmlns="http://www.w3.org/2000/svg">
<path d="M2.64359 8.28868L16 0.57735L29.3564 8.28868V23.7113L16 31.4227L2.64359 23.7113V8.28868Z" fill="#FEBDFF" stroke="#1D1818"/>
<path d="M11.4429 11.237L13.7031 15.1517L18.1889 15.1724L20.415 11.2766L18.1548 7.36184L13.6679 7.3418L11.4429 11.237Z" stroke="#1D1818"/>
<path d="M7.06412 19.1486L9.32429 23.0633L13.8101 23.084L16.0362 19.1882L13.776 15.2735L9.28913 15.2534L7.06412 19.1486Z" stroke="#1D1818"/>
<path d="M16.041 19.227L18.3012 23.1417L22.787 23.1623L25.0131 19.2666L22.7529 15.3518L18.2661 15.3318L16.041 19.227Z" stroke="#1D1818"/>
<path d="M20.4503 19.3376L15.8941 11.3376L11.6556 19.3376H20.4503Z" stroke="#1D1818"/>
</svg>
