<svg width="32" height="32" viewBox="0 0 32 32" fill="none" xmlns="http://www.w3.org/2000/svg">
<path d="M2.64359 8.28868L16 0.57735L29.3564 8.28868V23.7113L16 31.4227L2.64359 23.7113V8.28868Z" fill="#0A25A5" stroke="white"/>
<path d="M8.26489 9.36017V13.8805L12.1394 16.1413L16.0151 13.8805V9.36017L12.1394 7.09937L8.26489 9.36017Z" stroke="white"/>
<path d="M16 9.36017V13.8805L19.8745 16.1413L23.7502 13.8805V9.36017L19.8745 7.09937L16 9.36017Z" stroke="white"/>
<path d="M8.26489 18.3668V22.8871L12.1394 25.1479L16.0151 22.8871V18.3668L12.1394 16.106L8.26489 18.3668Z" stroke="white"/>
<path d="M16 18.3668V22.8871L19.8745 25.1479L23.7502 22.8871V18.3668L19.8745 16.106L16 18.3668Z" stroke="white"/>
<rect x="12.6854" y="12.1555" width="6.7351" height="8.21854" stroke="white"/>
</svg>
