<svg width="302" height="303" viewBox="0 0 302 303" fill="none" xmlns="http://www.w3.org/2000/svg">
<path d="M151 0.540405L281.77 76.0404V227.04L151 302.54L20.2302 227.04V76.0404L151 0.540405Z" fill="#B184F7"/>
<path d="M78 88.8767V131.537L114.566 152.874L151.143 131.537V88.8767L114.566 67.5404L78 88.8767Z" stroke="white" stroke-width="7"/>
<path d="M151 88.8767V131.537L187.566 152.874L224.143 131.537V88.8767L187.566 67.5404L151 88.8767Z" stroke="white" stroke-width="7"/>
<path d="M78 173.877V216.537L114.566 237.874L151.143 216.537V173.877L114.566 152.54L78 173.877Z" stroke="white" stroke-width="7"/>
<path d="M151 173.877V216.537L187.566 237.874L224.143 216.537V173.877L187.566 152.54L151 173.877Z" stroke="white" stroke-width="7"/>
<rect x="118.5" y="114.04" width="66" height="80" stroke="white" stroke-width="7"/>
</svg>
