<svg width="302" height="306" viewBox="0 0 302 306" fill="none" xmlns="http://www.w3.org/2000/svg">
<path d="M23.7302 78.838L151 5.35873L278.27 78.838V225.797L151 299.276L23.7302 225.797V78.838Z" fill="#B0CAFF" stroke="black" stroke-width="7"/>
<path d="M192.258 164.388L192.224 162.407L190.508 161.416L152.024 139.197L150.308 138.206L148.575 139.168L110.817 160.129L108.981 161.148L109.016 163.248L109.743 206.428L109.776 208.409L111.492 209.4L149.977 231.619L151.693 232.61L153.425 231.648L191.183 210.687L193.019 209.668L192.984 207.568L192.258 164.388Z" stroke="black" stroke-width="7"/>
<path d="M192.258 98.7766L192.224 96.7952L190.508 95.8043L152.024 73.5854L150.308 72.5946L148.575 73.5564L110.817 94.5172L108.981 95.5365L109.016 97.6362L109.743 140.816L109.776 142.797L111.492 143.788L149.977 166.007L151.693 166.998L153.425 166.036L191.183 145.075L193.019 144.056L192.984 141.956L192.258 98.7766Z" stroke="black" stroke-width="7"/>
<path d="M192.258 33.81L192.224 31.8286L190.508 30.8378L152.024 8.61884L150.308 7.628L148.575 8.58983L110.817 29.5506L108.981 30.5699L109.016 32.6696L109.743 75.8494L109.776 77.8308L111.492 78.8216L149.977 101.041L151.693 102.031L153.425 101.07L191.183 80.1087L193.019 79.0895L192.984 76.9898L192.258 33.81Z" stroke="black" stroke-width="7"/>
<path d="M192.258 230L192.224 228.019L190.508 227.028L152.024 204.809L150.308 203.818L148.575 204.78L110.817 225.741L108.981 226.76L109.016 228.86L109.743 272.039L109.776 274.021L111.492 275.012L149.977 297.23L151.693 298.221L153.425 297.259L191.183 276.299L193.019 275.279L192.984 273.18L192.258 230Z" stroke="black" stroke-width="7"/>
</svg>
