<svg width="32" height="34" viewBox="0 0 32 34" fill="none" xmlns="http://www.w3.org/2000/svg">
<path d="M2.64359 9.28868L16 1.57735L29.3564 9.28868V24.7113L16 32.4227L2.64359 24.7113V9.28868Z" fill="white" stroke="#1D1818"/>
<path d="M20.5008 18.2768L20.4961 17.9938L20.2509 17.8522L16.1731 15.4979L15.9279 15.3563L15.6804 15.4938L11.6796 17.7148L11.4173 17.8604L11.4223 18.1603L11.4993 22.7357L11.504 23.0187L11.7492 23.1603L15.827 25.5146L16.0722 25.6561L16.3197 25.5187L20.3205 23.2977L20.5828 23.1521L20.5778 22.8522L20.5008 18.2768Z" fill="white" stroke="#1D1818"/>
<path d="M20.5008 11.3247L20.4961 11.0416L20.2509 10.9001L16.1731 8.54575L15.9279 8.4042L15.6804 8.5416L11.6796 10.7626L11.4173 10.9082L11.4223 11.2082L11.4993 15.7835L11.504 16.0666L11.7492 16.2081L15.827 18.5625L16.0722 18.704L16.3197 18.5666L20.3205 16.3456L20.5828 16.2L20.5778 15.9L20.5008 11.3247Z" fill="white" stroke="#1D1818"/>
<path d="M20.5008 4.44089L20.4961 4.15783L20.2509 4.01628L16.1731 1.66196L15.9279 1.52041L15.6804 1.65781L11.6796 3.87883L11.4173 4.02444L11.4223 4.32439L11.4993 8.89973L11.504 9.18279L11.7492 9.32434L15.827 11.6787L16.0722 11.8202L16.3197 11.6828L20.3205 9.46179L20.5828 9.31618L20.5778 9.01622L20.5008 4.44089Z" fill="white" stroke="#1D1818"/>
<path d="M20.5008 25.2292L20.4961 24.9462L20.2509 24.8046L16.1731 22.4503L15.9279 22.3087L15.6804 22.4461L11.6796 24.6672L11.4173 24.8128L11.4223 25.1127L11.4993 29.6881L11.504 29.9711L11.7492 30.1127L15.827 32.467L16.0722 32.6085L16.3197 32.4711L20.3205 30.2501L20.5828 30.1045L20.5778 29.8046L20.5008 25.2292Z" fill="white" stroke="#1D1818"/>
</svg>
