<svg width="32" height="32" viewBox="0 0 32 32" fill="none" xmlns="http://www.w3.org/2000/svg">
<path d="M2.64359 8.28868L16 0.57735L29.3564 8.28868V23.7113L16 31.4227L2.64359 23.7113V8.28868Z" fill="#E1FF67" stroke="#1D1818"/>
<mask id="mask0_961_39807" style="mask-type:alpha" maskUnits="userSpaceOnUse" x="2" y="0" width="28" height="32">
<path d="M2.64359 8.28868L16 0.57735L29.3564 8.28868V23.7113L16 31.4227L2.64359 23.7113V8.28868Z" fill="#E1FF67" stroke="#1D1818"/>
</mask>
<g mask="url(#mask0_961_39807)">
<path d="M24.9305 16.0767C24.9305 20.5249 23.8792 24.5275 22.2053 27.4009C20.5242 30.2868 18.2755 31.9475 15.8941 31.9475C13.5127 31.9475 11.2639 30.2868 9.58286 27.4009C7.909 24.5275 6.85767 20.5249 6.85767 16.0767C6.85767 11.6285 7.909 7.62586 9.58286 4.7524C11.2639 1.86655 13.5127 0.205811 15.8941 0.205811C18.2755 0.205811 20.5242 1.86655 22.2053 4.7524C23.8792 7.62586 24.9305 11.6285 24.9305 16.0767Z" stroke="black"/>
</g>
<path d="M16 0.553467V31.7588" stroke="#1D1818"/>
<path d="M2.33118 16.1296L29.563 16.1296" stroke="#1D1818"/>
<path d="M2.33118 23.6528L29.563 23.6528" stroke="#1D1818"/>
<path d="M2.33118 8.50049L29.563 8.50049" stroke="#1D1818"/>
</svg>
