<svg width="262" height="311" viewBox="0 0 262 311" fill="none" xmlns="http://www.w3.org/2000/svg">
<path d="M130.77 3.54039L261.54 79.2904V230.79L130.77 306.54L0 230.79V79.2904L130.77 3.54039Z" fill="#0052FF"/>
<mask id="mask0_232_1827" style="mask-type:alpha" maskUnits="userSpaceOnUse" x="40" y="0" width="181" height="311">
<path d="M217.27 155.38C217.27 197.719 207.266 235.878 191.272 263.333C175.229 290.875 153.58 307.04 130.385 307.04C107.19 307.04 85.5412 290.875 69.4974 263.333C53.5042 235.878 43.5 197.719 43.5 155.38C43.5 113.041 53.5042 74.8811 69.4974 47.4261C85.5412 19.8844 107.19 3.71884 130.385 3.71884C153.58 3.71884 175.229 19.8844 191.272 47.4261C207.266 74.8811 217.27 113.041 217.27 155.38Z" stroke="black" stroke-width="7"/>
</mask>
<g mask="url(#mask0_232_1827)">
<path d="M130.616 3.23167L261.945 79.3056V231.454L130.616 307.528L-0.713043 231.454V79.3056L130.616 3.23167Z" fill="white"/>
</g>
<path d="M131 7.04039L131 303.54" stroke="white" stroke-width="7"/>
<path d="M0 155.54L262 155.54" stroke="white" stroke-width="7"/>
<path d="M0 226.54L262 226.54" stroke="white" stroke-width="7"/>
<path d="M0 83.5404L262 83.5404" stroke="white" stroke-width="7"/>
</svg>
