<svg width="296" height="112" viewBox="0 0 296 112" fill="none" xmlns="http://www.w3.org/2000/svg">
<path d="M279.286 62.7367L267.618 69.4733L255.95 62.7367L255.95 49.2634L267.618 42.5268L279.286 49.2634L279.286 62.7367Z" fill="white" stroke="#050F19" stroke-width="0.86918"/>
<path d="M271.042 58.0051L271.042 54.0568L267.658 52.0821L264.273 54.0568L264.273 58.0051L267.658 59.9797L271.042 58.0051Z" stroke="#050F19" stroke-width="0.86918"/>
<path d="M219.477 62.7367L207.809 69.4733L196.141 62.7367L196.141 49.2634L207.809 42.5268L219.477 49.2634L219.477 62.7367Z" fill="#050F19" stroke="white" stroke-width="0.86918"/>
<path d="M214.565 59.856L214.565 55.9078L211.181 53.9331L207.796 55.9078L207.796 59.856L211.181 61.8307L214.565 59.856Z" stroke="white" stroke-width="0.86918"/>
<path d="M207.809 55.8764L207.809 51.9281L204.425 49.9535L201.04 51.9281L201.04 55.8764L204.425 57.8511L207.809 55.8764Z" stroke="white" stroke-width="0.86918"/>
<path d="M211.141 57.8511L204.478 53.8714" stroke="white" stroke-width="0.86918"/>
<path d="M159.668 62.7367L148 69.4733L136.332 62.7367L136.332 49.2634L148 42.5268L159.668 49.2634L159.668 62.7367Z" fill="white" stroke="#050F19" stroke-width="0.86918"/>
<path d="M151.98 60.1602L150.006 56.741L146.088 56.7229L144.144 60.1256L146.118 63.5449L150.037 63.5624L151.98 60.1602Z" stroke="#050F19" stroke-width="0.86918"/>
<path d="M155.805 53.25L153.831 49.8307L149.913 49.8126L147.969 53.2154L149.943 56.6346L153.862 56.6522L155.805 53.25Z" stroke="#050F19" stroke-width="0.86918"/>
<path d="M147.964 53.1815L145.99 49.7622L142.072 49.7442L140.128 53.1469L142.102 56.5662L146.021 56.5837L147.964 53.1815Z" stroke="#050F19" stroke-width="0.86918"/>
<path d="M144.113 53.0847L148.092 60.0723L151.794 53.0847L144.113 53.0847Z" stroke="#050F19" stroke-width="0.86918"/>
<path d="M99.8591 62.7367L88.191 69.4733L76.5228 62.7367L76.5228 49.2634L88.191 42.5268L99.8591 49.2634L99.8591 62.7367Z" fill="#050F19" stroke="white" stroke-width="0.86918"/>
<path d="M94.9473 61.7996L94.9473 57.8514L91.5631 55.8767L88.1779 57.8514L88.1779 61.7996L91.5631 63.7743L94.9473 61.7996Z" stroke="white" stroke-width="0.86918"/>
<path d="M88.1909 61.7996L88.1909 57.8514L84.8068 55.8767L81.4215 57.8514L81.4215 61.7996L84.8068 63.7743L88.1909 61.7996Z" stroke="white" stroke-width="0.86918"/>
<path d="M94.9473 53.9328L94.9473 49.9845L91.5631 48.0099L88.1779 49.9845L88.1779 53.9328L91.5631 55.9075L94.9473 53.9328Z" stroke="white" stroke-width="0.86918"/>
<path d="M88.1909 53.9328L88.1909 49.9845L84.8068 48.0099L81.4215 49.9845L81.4215 53.9328L84.8068 55.9075L88.1909 53.9328Z" stroke="white" stroke-width="0.86918"/>
<rect x="91.0884" y="59.36" width="5.88697" height="7.18267" transform="rotate(-180 91.0884 59.36)" stroke="white" stroke-width="0.86918"/>
<path d="M40.05 62.7367L28.3819 69.4733L16.7137 62.7367L16.7137 49.2634L28.3819 42.5268L40.05 49.2634L40.05 62.7367Z" fill="white" stroke="#050F19" stroke-width="0.86918"/>
<path fill-rule="evenodd" clip-rule="evenodd" d="M21.0048 55.9331C21.0048 52.1092 21.9095 48.6893 23.3276 46.2549C23.8705 45.3229 24.4737 44.5567 25.1154 43.9645L22.9682 45.2042C21.2372 47.8244 20.1452 51.6598 20.1452 55.9331C20.1452 60.3274 21.2999 64.2587 23.1168 66.8817L25.6272 68.3311C24.794 67.6997 24.0127 66.7875 23.3276 65.6113C21.9095 63.1769 21.0048 59.757 21.0048 55.9331ZM26.8728 69.0502L28.4747 69.9751L30.0767 69.0502C29.5506 69.2638 29.0134 69.3725 28.4747 69.3725C27.9361 69.3725 27.3989 69.2638 26.8728 69.0502ZM31.3221 68.3312C32.1553 67.6998 32.9366 66.7875 33.6218 65.6113C35.0399 63.1769 35.9446 59.757 35.9446 55.9331C35.9446 52.1092 35.0399 48.6893 33.6218 46.2549C33.0789 45.3229 32.4756 44.5566 31.834 43.9645L33.9812 45.2042C35.7122 47.8244 36.8042 51.6598 36.8042 55.9331C36.8042 60.3274 35.6495 64.2588 33.8326 66.8817L31.3221 68.3312ZM29.5257 42.6318L28.4747 42.025L27.4238 42.6318C27.7717 42.5401 28.1229 42.4937 28.4747 42.4937C28.8265 42.4937 29.1778 42.5401 29.5257 42.6318Z" fill="#050F19"/>
<path d="M28.3818 69.4917L28.3818 42.2357" stroke="#050F19" stroke-width="0.86918"/>
<path d="M40.3208 55.8868L16.5355 55.8868" stroke="#050F19" stroke-width="0.86918"/>
<path d="M40.3208 49.3158L16.5355 49.3158" stroke="#050F19" stroke-width="0.86918"/>
<path d="M40.3208 62.5504L16.5355 62.5504" stroke="#050F19" stroke-width="0.86918"/>
</svg>
